<svg xmlns:xlink="http://www.w3.org/1999/xlink" xmlns="http://www.w3.org/2000/svg" class="icon icon-close" width="24"  height="24" ><defs><symbol viewBox="0 0 24 24" style="enable-background:new 0 0 24 24" xml:space="preserve" id="icon-close" xmlns="http://www.w3.org/2000/svg"><path d="m13.414 12 5.44-5.439a.5.5 0 0 0 0-.707l-.707-.707a.5.5 0 0 0-.707 0L12 10.586 6.56 5.147a.5.5 0 0 0-.707 0l-.707.707a.5.5 0 0 0 0 .707L10.586 12l-5.44 5.439a.5.5 0 0 0 0 .707l.707.707a.5.5 0 0 0 .707 0L12 13.414l5.44 5.439a.5.5 0 0 0 .707 0l.707-.707a.5.5 0 0 0 0-.707L13.414 12z"></path></symbol></defs><use xlink:href="#icon-close" fill="#FFFFFF"></use></svg>